<?xml version="1.0" encoding="UTF-8" standalone="no"?>
<!-- Created with Inkscape (http://www.inkscape.org/) -->

<svg
   xmlns:dc="http://purl.org/dc/elements/1.1/"
   xmlns:cc="http://creativecommons.org/ns#"
   xmlns:rdf="http://www.w3.org/1999/02/22-rdf-syntax-ns#"
   xmlns:svg="http://www.w3.org/2000/svg"
   xmlns="http://www.w3.org/2000/svg"
   xmlns:sodipodi="http://sodipodi.sourceforge.net/DTD/sodipodi-0.dtd"
   xmlns:inkscape="http://www.inkscape.org/namespaces/inkscape"
   width="30.0019"
   height="30.001482"
   id="svg3668"
   version="1.1"
   inkscape:version="0.48.3.1 r9886"
   sodipodi:docname="New document 22">
  <defs
     id="defs3670" />
  <sodipodi:namedview
     id="base"
     pagecolor="#ffffff"
     bordercolor="#666666"
     borderopacity="1.0"
     inkscape:pageopacity="0.0"
     inkscape:pageshadow="2"
     inkscape:zoom="0.35"
     inkscape:cx="15.000951"
     inkscape:cy="15.000737"
     inkscape:document-units="px"
     inkscape:current-layer="layer1"
     showgrid="false"
     fit-margin-top="0"
     fit-margin-left="0"
     fit-margin-right="0"
     fit-margin-bottom="0"
     inkscape:window-width="532"
     inkscape:window-height="422"
     inkscape:window-x="2"
     inkscape:window-y="111"
     inkscape:window-maximized="0" />
  <metadata
     id="metadata3673">
    <rdf:RDF>
      <cc:Work
         rdf:about="">
        <dc:format>image/svg+xml</dc:format>
        <dc:type
           rdf:resource="http://purl.org/dc/dcmitype/StillImage" />
        <dc:title></dc:title>
      </cc:Work>
    </rdf:RDF>
  </metadata>
  <g
     inkscape:label="Layer 1"
     inkscape:groupmode="layer"
     id="layer1"
     transform="translate(-359.99905,-517.36144)">
    <g
       transform="translate(206.67435,247.98892)"
       id="g7">
      <path
         style="fill:#d75942"
         inkscape:connector-curvature="0"
         d="m 182.132,290.261 c 2.398,-5.57 1.089,-12.035 -3.059,-16.395 -4.143,-4.359 -10.814,-5.643 -16.346,-3.428 -5.553,2.227 -9.154,7.615 -9.391,13.545 -0.334,8.398 6.783,15.279 15.004,15.391 5.975,-0.082 11.417,-3.596 13.792,-9.113 z m -13.791,6.699 c -6.262,-0.084 -11.396,-4.576 -12.463,-10.719 -1.068,-6.141 3.024,-12.135 8.828,-13.951 5.993,-1.875 12.344,1.227 15.059,6.74 2.758,5.604 0.521,12.531 -4.57,15.902 -2.038,1.352 -4.428,1.995 -6.854,2.028 z"
         id="path9" />
      <path
         style="fill:#d75942"
         inkscape:connector-curvature="0"
         d="m 164.904,292.409 c 0.118,0.441 0.413,0.773 0.824,0.947 0.307,0.16 0.653,0.205 1.005,0.109 1.848,-0.248 3.694,-0.498 5.539,-0.75 1.929,-0.26 1.184,-3.125 -0.717,-2.867 -0.323,0.041 -0.738,-0.006 -0.922,0.178 2.199,-2.199 1.562,-1.562 3.697,-3.697 0.357,-0.357 0.489,-0.764 0.465,-1.143 0,-0.016 0.004,-0.025 0.004,-0.041 0,-3.018 0,-2.074 0,-5.105 h -0.002 c 0,-0.41 0,-0.963 0,-1.967 0,-2.012 -3.016,-2.012 -3.016,0 0,3.018 0,2.074 0,5.104 h 0.001 c 0,0.33 0,0.764 0,1.434 -1.622,1.623 -1.12,1.121 -3.108,3.109 -0.11,-0.361 0.025,-0.477 0.061,-0.691 0.316,-1.902 -2.619,-2.713 -2.939,-0.787 -0.301,1.791 -0.609,3.572 -0.912,5.367 -0.075,0.273 -0.068,0.544 0.02,0.8 z"
         id="path11" />
      <path
         style="fill:#d75942"
         inkscape:connector-curvature="0"
         d="m 165.421,282.86 c 2.08,0 3.767,-1.691 3.767,-3.779 0,-2.09 -1.687,-3.781 -3.767,-3.781 -2.08,0 -3.766,1.691 -3.766,3.781 0,2.088 1.686,3.779 3.766,3.779 z m -1.879,-4.843 c -0.211,-0.213 -0.211,-0.559 0,-0.771 0.211,-0.211 0.556,-0.211 0.769,0 l 1.041,1.045 1.041,-1.045 c 0.212,-0.211 0.555,-0.211 0.768,0 0.212,0.213 0.212,0.557 0,0.771 l -1.042,1.045 1.042,1.045 c 0.212,0.213 0.212,0.559 0,0.771 -0.213,0.213 -0.556,0.213 -0.768,0 l -1.041,-1.045 -1.041,1.045 c -0.212,0.213 -0.558,0.213 -0.769,0 -0.211,-0.211 -0.211,-0.557 0,-0.771 l 1.041,-1.045 -1.041,-1.045 z"
         id="path13" />
    </g>
  </g>
</svg>
