<?xml version="1.0" encoding="UTF-8" standalone="no"?>
<!-- Created with Inkscape (http://www.inkscape.org/) -->

<svg
   xmlns:dc="http://purl.org/dc/elements/1.1/"
   xmlns:cc="http://creativecommons.org/ns#"
   xmlns:rdf="http://www.w3.org/1999/02/22-rdf-syntax-ns#"
   xmlns:svg="http://www.w3.org/2000/svg"
   xmlns="http://www.w3.org/2000/svg"
   xmlns:sodipodi="http://sodipodi.sourceforge.net/DTD/sodipodi-0.dtd"
   xmlns:inkscape="http://www.inkscape.org/namespaces/inkscape"
   width="30.001675"
   height="30.001482"
   id="svg3722"
   version="1.1"
   inkscape:version="0.48.3.1 r9886"
   sodipodi:docname="New document 25">
  <defs
     id="defs3724" />
  <sodipodi:namedview
     id="base"
     pagecolor="#ffffff"
     bordercolor="#666666"
     borderopacity="1.0"
     inkscape:pageopacity="0.0"
     inkscape:pageshadow="2"
     inkscape:zoom="0.35"
     inkscape:cx="-81.427737"
     inkscape:cy="97.857879"
     inkscape:document-units="px"
     inkscape:current-layer="layer1"
     showgrid="false"
     fit-margin-top="0"
     fit-margin-left="0"
     fit-margin-right="0"
     fit-margin-bottom="0"
     inkscape:window-width="532"
     inkscape:window-height="422"
     inkscape:window-x="2"
     inkscape:window-y="111"
     inkscape:window-maximized="0" />
  <metadata
     id="metadata3727">
    <rdf:RDF>
      <cc:Work
         rdf:about="">
        <dc:format>image/svg+xml</dc:format>
        <dc:type
           rdf:resource="http://purl.org/dc/dcmitype/StillImage" />
        <dc:title></dc:title>
      </cc:Work>
    </rdf:RDF>
  </metadata>
  <g
     inkscape:label="Layer 1"
     inkscape:groupmode="layer"
     id="layer1"
     transform="translate(-456.42774,-600.21858)">
    <g
       transform="translate(223.90511,330.84458)"
       id="g33">
      <path
         style="fill:#9cb913"
         inkscape:connector-curvature="0"
         d="m 233.717,278.487 c -2.398,5.57 -1.088,12.033 3.059,16.395 4.143,4.359 10.814,5.643 16.346,3.428 5.553,-2.227 9.154,-7.615 9.391,-13.547 0.334,-8.396 -6.783,-15.277 -15.004,-15.389 -5.978,0.08 -11.417,3.594 -13.792,9.113 z m 13.791,-6.699 c 6.262,0.082 11.395,4.574 12.465,10.717 1.068,6.141 -3.025,12.135 -8.828,13.951 -5.994,1.875 -12.344,-1.227 -15.059,-6.74 -2.76,-5.604 -0.521,-12.531 4.568,-15.902 2.035,-1.35 4.428,-1.995 6.854,-2.026 z"
         id="path35" />
      <path
         style="fill:#9cb913"
         inkscape:connector-curvature="0"
         d="m 250.943,276.337 c -0.119,-0.441 -0.414,-0.773 -0.824,-0.947 -0.307,-0.16 -0.652,-0.205 -1.006,-0.109 -1.848,0.248 -3.693,0.5 -5.539,0.75 -1.928,0.262 -1.182,3.127 0.719,2.867 0.322,-0.041 0.736,0.006 0.922,-0.176 -2.201,2.199 -1.564,1.562 -3.697,3.697 -0.359,0.357 -0.49,0.762 -0.465,1.143 0,0.014 -0.004,0.025 -0.004,0.039 0,3.02 0,2.076 0,5.107 l 0,0 c 0,0.41 0,0.963 0,1.967 0,2.01 3.016,2.01 3.016,0 0,-3.018 0,-2.074 0,-5.105 l 0,0 c 0,-0.328 0,-0.764 0,-1.434 1.621,-1.623 1.119,-1.121 3.107,-3.109 0.111,0.361 -0.025,0.479 -0.061,0.691 -0.316,1.904 2.619,2.713 2.939,0.789 0.301,-1.791 0.609,-3.574 0.912,-5.369 0.077,-0.272 0.069,-0.543 -0.019,-0.801 z"
         id="path37" />
      <path
         style="fill:#9cb913"
         inkscape:connector-curvature="0"
         d="m 250.422,285.854 c -2.076,0 -3.762,1.688 -3.762,3.766 0,2.078 1.686,3.764 3.762,3.764 2.076,0 3.76,-1.686 3.76,-3.764 0,-2.08 -1.686,-3.766 -3.76,-3.766 z m 2.15,2.477 -0.713,1.133 -0.525,0.838 -0.713,1.133 c -0.143,0.227 -0.438,0.297 -0.668,0.162 -0.004,-0.002 -0.008,-0.004 -0.012,-0.006 h -0.002 v -0.002 c -0.055,-0.027 -0.104,-0.064 -0.146,-0.113 l -0.879,-1.012 -0.416,-0.477 -0.182,-0.207 c -0.18,-0.203 -0.158,-0.516 0.047,-0.695 0.207,-0.18 0.52,-0.156 0.697,0.049 l 0.182,0.205 0.416,0.477 0.473,0.545 0.367,-0.586 0.523,-0.836 0.713,-1.133 c 0.146,-0.23 0.449,-0.301 0.682,-0.156 0.23,0.144 0.301,0.449 0.156,0.681 z"
         id="path39" />
    </g>
  </g>
</svg>
