<?xml version="1.0" encoding="UTF-8" standalone="no"?>
<!-- Created with Inkscape (http://www.inkscape.org/) -->

<svg
   xmlns:dc="http://purl.org/dc/elements/1.1/"
   xmlns:cc="http://creativecommons.org/ns#"
   xmlns:rdf="http://www.w3.org/1999/02/22-rdf-syntax-ns#"
   xmlns:svg="http://www.w3.org/2000/svg"
   xmlns="http://www.w3.org/2000/svg"
   xmlns:sodipodi="http://sodipodi.sourceforge.net/DTD/sodipodi-0.dtd"
   xmlns:inkscape="http://www.inkscape.org/namespaces/inkscape"
   width="29.999973"
   height="30.00104"
   id="svg3410"
   version="1.1"
   inkscape:version="0.92.1 r15371"
   sodipodi:docname="hide.svg">
  <defs
     id="defs3412" />
  <sodipodi:namedview
     id="base"
     pagecolor="#ffffff"
     bordercolor="#666666"
     borderopacity="1.0"
     inkscape:pageopacity="0.0"
     inkscape:pageshadow="2"
     inkscape:zoom="28.88848"
     inkscape:cx="10.196912"
     inkscape:cy="15.957335"
     inkscape:current-layer="layer1"
     showgrid="true"
     inkscape:grid-bbox="true"
     inkscape:document-units="px"
     inkscape:window-width="1855"
     inkscape:window-height="1056"
     inkscape:window-x="65"
     inkscape:window-y="24"
     inkscape:window-maximized="1"
     fit-margin-top="0"
     fit-margin-left="0"
     fit-margin-right="0"
     fit-margin-bottom="0" />
  <metadata
     id="metadata3415">
    <rdf:RDF>
      <cc:Work
         rdf:about="">
        <dc:format>image/svg+xml</dc:format>
        <dc:type
           rdf:resource="http://purl.org/dc/dcmitype/StillImage" />
        <dc:title />
      </cc:Work>
    </rdf:RDF>
  </metadata>
  <g
     id="layer1"
     inkscape:label="Layer 1"
     inkscape:groupmode="layer"
     transform="translate(-0.96733725,-1.1595349)">
    <g
       transform="translate(-146.33269,-240.50979)"
       id="g3365"
       style="fill:#ef3e42;fill-opacity:1">
      <path
         inkscape:connector-curvature="0"
         d="m 163.914,252.123 c -0.777,-0.771 -2.065,-0.782 -2.842,-0.005 -1.537,1.535 -3.073,3.087 -4.61,4.624 -1.836,1.834 1.008,4.692 2.844,2.858 1.062,-1.064 2.129,-2.203 3.193,-3.249 1.076,1.046 2.15,2.185 3.224,3.249 1.843,1.825 4.687,-1.034 2.843,-2.861 -1.55,-1.535 -3.102,-3.081 -4.652,-4.616 z"
         id="path3367"
         style="fill:#ef3e42;fill-opacity:1" />
      <path
         inkscape:connector-curvature="0"
         d="m 168.186,242.864 c -5.569,-2.398 -12.034,-1.089 -16.394,3.057 -4.359,4.145 -5.641,10.814 -3.426,16.346 2.227,5.556 7.614,9.155 13.545,9.392 8.396,0.335 15.277,-6.784 15.389,-15.002 -0.08,-5.976 -3.596,-11.419 -9.114,-13.793 z m -4.019,26.256 c -6.139,1.067 -12.135,-3.024 -13.951,-8.829 -1.875,-5.991 1.227,-12.343 6.742,-15.059 5.602,-2.759 12.531,-0.521 15.902,4.569 1.347,2.036 1.992,4.428 2.025,6.854 -0.082,6.261 -4.577,11.397 -10.718,12.465 z"
         id="path3369"
         style="fill:#ef3e42;fill-opacity:1" />
    </g>
  </g>
</svg>
