<?xml version="1.0" encoding="UTF-8" standalone="no"?>
<!-- Created with Inkscape (http://www.inkscape.org/) -->

<svg
   xmlns:dc="http://purl.org/dc/elements/1.1/"
   xmlns:cc="http://creativecommons.org/ns#"
   xmlns:rdf="http://www.w3.org/1999/02/22-rdf-syntax-ns#"
   xmlns:svg="http://www.w3.org/2000/svg"
   xmlns="http://www.w3.org/2000/svg"
   xmlns:sodipodi="http://sodipodi.sourceforge.net/DTD/sodipodi-0.dtd"
   xmlns:inkscape="http://www.inkscape.org/namespaces/inkscape"
   width="16.000498"
   height="15.999533"
   id="svg4995"
   version="1.1"
   inkscape:version="0.48.3.1 r9886"
   sodipodi:docname="search-bold.svg">
  <defs
     id="defs4997" />
  <sodipodi:namedview
     id="base"
     pagecolor="#ffffff"
     bordercolor="#666666"
     borderopacity="1.0"
     inkscape:pageopacity="0.0"
     inkscape:pageshadow="2"
     inkscape:zoom="7.9195959"
     inkscape:cx="6.4690047"
     inkscape:cy="11.333773"
     inkscape:document-units="px"
     inkscape:current-layer="layer1"
     showgrid="false"
     fit-margin-top="0"
     fit-margin-left="0"
     fit-margin-right="0"
     fit-margin-bottom="0"
     inkscape:window-width="805"
     inkscape:window-height="422"
     inkscape:window-x="329"
     inkscape:window-y="264"
     inkscape:window-maximized="0" />
  <metadata
     id="metadata5000">
    <rdf:RDF>
      <cc:Work
         rdf:about="">
        <dc:format>image/svg+xml</dc:format>
        <dc:type
           rdf:resource="http://purl.org/dc/dcmitype/StillImage" />
        <dc:title />
      </cc:Work>
    </rdf:RDF>
  </metadata>
  <g
     inkscape:label="Layer 1"
     inkscape:groupmode="layer"
     id="layer1"
     transform="translate(-366.99975,-524.36242)">
    <path
       inkscape:connector-curvature="0"
       d="m 382.57699,537.85982 c -1.189,-1.214 -2.379,-2.427 -3.569,-3.641 0.491,-0.886 0.806,-1.883 0.899,-2.904 0.019,-0.109 0.029,-0.226 0.024,-0.353 0.005,-0.139 -0.01,-0.265 -0.033,-0.384 -0.318,-3.501 -2.933,-6.059 -6.431,-6.21 -3.621,-0.157 -6.317,3.132 -6.462,6.594 -0.153,3.694 3.07,6.447 6.462,6.594 1.377,0.059 2.619,-0.38 3.64,-1.136 1.146,1.17 2.293,2.34 3.438,3.51 1.312,1.337 3.342,-0.734 2.032,-2.07 z m -12.701,-6.898 c -0.197,-4.733 6.988,-4.712 7.185,0 -0.198,4.729 -6.987,4.729 -7.185,0 z"
       id="path4822"
       style="fill:#2c2927;fill-opacity:1" />
  </g>
</svg>
