<?xml version="1.0" encoding="UTF-8" standalone="no"?>
<!-- Created with Inkscape (http://www.inkscape.org/) -->

<svg
   xmlns:dc="http://purl.org/dc/elements/1.1/"
   xmlns:cc="http://creativecommons.org/ns#"
   xmlns:rdf="http://www.w3.org/1999/02/22-rdf-syntax-ns#"
   xmlns:svg="http://www.w3.org/2000/svg"
   xmlns="http://www.w3.org/2000/svg"
   xmlns:sodipodi="http://sodipodi.sourceforge.net/DTD/sodipodi-0.dtd"
   xmlns:inkscape="http://www.inkscape.org/namespaces/inkscape"
   width="29.99955"
   height="30.000841"
   id="svg3356"
   version="1.1"
   inkscape:version="0.92.1 r15371"
   sodipodi:docname="show.svg">
  <defs
     id="defs3358" />
  <sodipodi:namedview
     id="base"
     pagecolor="#ffffff"
     bordercolor="#666666"
     borderopacity="1.0"
     inkscape:pageopacity="0.0"
     inkscape:pageshadow="2"
     inkscape:zoom="10.215625"
     inkscape:cx="4.0006792"
     inkscape:cy="17.555994"
     inkscape:document-units="px"
     inkscape:current-layer="layer1"
     showgrid="false"
     fit-margin-top="0"
     fit-margin-left="0"
     fit-margin-right="0"
     fit-margin-bottom="0"
     inkscape:window-width="1855"
     inkscape:window-height="1056"
     inkscape:window-x="65"
     inkscape:window-y="24"
     inkscape:window-maximized="1" />
  <metadata
     id="metadata3361">
    <rdf:RDF>
      <cc:Work
         rdf:about="">
        <dc:format>image/svg+xml</dc:format>
        <dc:type
           rdf:resource="http://purl.org/dc/dcmitype/StillImage" />
        <dc:title />
      </cc:Work>
    </rdf:RDF>
  </metadata>
  <g
     inkscape:label="Layer 1"
     inkscape:groupmode="layer"
     id="layer1"
     transform="translate(-360.00023,-517.36176)">
    <g
       transform="translate(212.69923,215.37919)"
       id="g143"
       style="fill:#ef3e42;fill-opacity:1">
      <path
         inkscape:connector-curvature="0"
         d="m 160.687,321.53 c 0.778,0.771 2.067,0.781 2.843,0.005 1.537,-1.536 3.073,-3.089 4.609,-4.625 1.836,-1.835 -1.008,-4.691 -2.843,-2.858 -1.064,1.065 -2.13,2.203 -3.194,3.249 -1.075,-1.046 -2.148,-2.184 -3.225,-3.249 -1.842,-1.825 -4.687,1.035 -2.844,2.861 1.551,1.535 3.104,3.08 4.654,4.617 z"
         id="path145"
         style="fill:#ef3e42;fill-opacity:1" />
      <path
         inkscape:connector-curvature="0"
         d="m 156.413,330.789 c 5.571,2.398 12.036,1.088 16.396,-3.058 4.357,-4.145 5.641,-10.815 3.426,-16.346 -2.227,-5.555 -7.615,-9.155 -13.546,-9.391 -8.396,-0.336 -15.278,6.784 -15.388,15.001 0.082,5.979 3.594,11.419 9.112,13.794 z m 4.021,-26.256 c 6.139,-1.067 12.134,3.023 13.95,8.83 1.876,5.99 -1.227,12.34 -6.741,15.057 -5.602,2.759 -12.531,0.523 -15.902,-4.57 -1.348,-2.035 -1.993,-4.427 -2.024,-6.854 0.081,-6.26 4.575,-11.395 10.717,-12.463 z"
         id="path147"
         style="fill:#ef3e42;fill-opacity:1" />
    </g>
  </g>
</svg>
