<?xml version="1.0" encoding="UTF-8" standalone="no"?>
<!-- Created with Inkscape (http://www.inkscape.org/) -->

<svg
   xmlns:dc="http://purl.org/dc/elements/1.1/"
   xmlns:cc="http://creativecommons.org/ns#"
   xmlns:rdf="http://www.w3.org/1999/02/22-rdf-syntax-ns#"
   xmlns:svg="http://www.w3.org/2000/svg"
   xmlns="http://www.w3.org/2000/svg"
   xmlns:sodipodi="http://sodipodi.sourceforge.net/DTD/sodipodi-0.dtd"
   xmlns:inkscape="http://www.inkscape.org/namespaces/inkscape"
   width="29.999693"
   height="30.001133"
   id="svg3407"
   version="1.1"
   inkscape:version="0.48.3.1 r9886"
   sodipodi:docname="voicemail.svg">
  <defs
     id="defs3409" />
  <sodipodi:namedview
     id="base"
     pagecolor="#ffffff"
     bordercolor="#666666"
     borderopacity="1.0"
     inkscape:pageopacity="0.0"
     inkscape:pageshadow="2"
     inkscape:zoom="2.8"
     inkscape:cx="35.574359"
     inkscape:cy="20.399034"
     inkscape:document-units="px"
     inkscape:current-layer="layer1"
     showgrid="false"
     fit-margin-top="0"
     fit-margin-left="0"
     fit-margin-right="0"
     fit-margin-bottom="0"
     inkscape:window-width="805"
     inkscape:window-height="422"
     inkscape:window-x="1"
     inkscape:window-y="83"
     inkscape:window-maximized="0" />
  <metadata
     id="metadata3412">
    <rdf:RDF>
      <cc:Work
         rdf:about="">
        <dc:format>image/svg+xml</dc:format>
        <dc:type
           rdf:resource="http://purl.org/dc/dcmitype/StillImage" />
        <dc:title />
      </cc:Work>
    </rdf:RDF>
  </metadata>
  <g
     inkscape:label="Layer 1"
     inkscape:groupmode="layer"
     id="layer1"
     transform="translate(-253.57159,-523.0759)">
    <g
       transform="translate(106.27128,341.3226)"
       id="g137"
       style="fill:#58524f;fill-opacity:1">
      <path
         inkscape:connector-curvature="0"
         d="m 168.187,182.947 c -5.57,-2.397 -12.035,-1.087 -16.393,3.059 -4.36,4.145 -5.643,10.814 -3.428,16.345 2.227,5.556 7.615,9.155 13.546,9.392 8.397,0.336 15.278,-6.784 15.388,-15.002 -0.081,-5.976 -3.594,-11.419 -9.113,-13.794 z m -4.018,26.257 c -6.141,1.067 -12.136,-3.024 -13.952,-8.829 -1.876,-5.991 1.227,-12.343 6.74,-15.059 5.603,-2.759 12.531,-0.521 15.905,4.57 1.347,2.036 1.992,4.428 2.023,6.854 -0.082,6.26 -4.575,11.396 -10.716,12.464 z"
         id="path139"
         style="fill:#58524f;fill-opacity:1" />
      <path
         inkscape:connector-curvature="0"
         d="m 172.583,196.712 c -0.218,-2.451 -2.049,-4.22 -4.541,-4.338 -2.566,-0.121 -4.45,2.175 -4.562,4.561 -0.055,1.152 0.38,2.163 1.09,2.942 -1.595,0 -3.207,0 -4.802,0 0.618,-0.766 1.009,-1.727 1.103,-2.718 0.014,-0.069 0.024,-0.142 0.02,-0.225 0.005,-0.081 -0.006,-0.152 -0.019,-0.222 -0.218,-2.451 -2.049,-4.221 -4.542,-4.339 -2.564,-0.121 -4.448,2.176 -4.562,4.562 -0.121,2.562 2.177,4.446 4.562,4.56 0.176,0.009 0.348,0.004 0.516,-0.011 1.6,0 7.812,0 11.086,0 0.035,0.003 0.072,0.009 0.111,0.011 2.484,0.118 4.323,-2.034 4.541,-4.337 0.015,-0.068 0.023,-0.141 0.02,-0.224 0.003,-0.08 -0.007,-0.153 -0.021,-0.222 z m -19.207,0.222 c -0.181,-3.808 5.727,-3.789 5.906,0 -0.181,3.805 -5.725,3.805 -5.906,0 z m 11.713,0 c -0.182,-3.808 5.725,-3.789 5.904,0 -0.179,3.805 -5.726,3.805 -5.904,0 z"
         id="path141"
         style="fill:#58524f;fill-opacity:1" />
    </g>
  </g>
</svg>
