<?xml version="1.0" encoding="UTF-8" standalone="no"?>
<!-- Created with Inkscape (http://www.inkscape.org/) -->

<svg
   xmlns:dc="http://purl.org/dc/elements/1.1/"
   xmlns:cc="http://creativecommons.org/ns#"
   xmlns:rdf="http://www.w3.org/1999/02/22-rdf-syntax-ns#"
   xmlns:svg="http://www.w3.org/2000/svg"
   xmlns="http://www.w3.org/2000/svg"
   xmlns:sodipodi="http://sodipodi.sourceforge.net/DTD/sodipodi-0.dtd"
   xmlns:inkscape="http://www.inkscape.org/namespaces/inkscape"
   width="30.000204"
   height="30.001003"
   id="svg3226"
   version="1.1"
   inkscape:version="0.48.3.1 r9886"
   sodipodi:docname="services.svg">
  <defs
     id="defs3228" />
  <sodipodi:namedview
     id="base"
     pagecolor="#ffffff"
     bordercolor="#666666"
     borderopacity="1.0"
     inkscape:pageopacity="0.0"
     inkscape:pageshadow="2"
     inkscape:zoom="5.598901"
     inkscape:cx="14.713868"
     inkscape:cy="14.651425"
     inkscape:current-layer="layer1"
     showgrid="true"
     inkscape:grid-bbox="true"
     inkscape:document-units="px"
     inkscape:window-width="532"
     inkscape:window-height="422"
     inkscape:window-x="1001"
     inkscape:window-y="395"
     inkscape:window-maximized="0"
     fit-margin-top="0"
     fit-margin-left="0"
     fit-margin-right="0"
     fit-margin-bottom="0" />
  <metadata
     id="metadata3231">
    <rdf:RDF>
      <cc:Work
         rdf:about="">
        <dc:format>image/svg+xml</dc:format>
        <dc:type
           rdf:resource="http://purl.org/dc/dcmitype/StillImage" />
        <dc:title />
      </cc:Work>
    </rdf:RDF>
  </metadata>
  <g
     id="layer1"
     inkscape:label="Layer 1"
     inkscape:groupmode="layer"
     transform="translate(-1.074475,-1.1035131)">
    <g
       transform="translate(-206.48532,-361.25185)"
       id="g85">
      <path
         inkscape:connector-curvature="0"
         d="m 228.447,363.55 c -5.57,-2.398 -12.035,-1.089 -16.395,3.058 -4.358,4.144 -5.642,10.814 -3.426,16.346 2.227,5.554 7.615,9.154 13.545,9.391 8.397,0.335 15.278,-6.783 15.389,-15.003 -0.08,-5.977 -3.594,-11.418 -9.113,-13.792 z m 6.699,13.791 c -0.083,6.262 -4.576,11.396 -10.718,12.464 -6.139,1.068 -12.135,-3.024 -13.951,-8.828 -1.875,-5.994 1.227,-12.343 6.741,-15.059 5.602,-2.758 12.531,-0.521 15.903,4.57 1.348,2.035 1.993,4.427 2.025,6.853 z"
         id="path87" />
      <path
         inkscape:connector-curvature="0"
         d="m 228.523,373.135 c -1.186,-0.903 -2.373,-1.806 -3.558,-2.709 -1.238,-0.942 -2.438,1.101 -1.217,2.028 0.207,0.159 0.415,0.422 0.621,0.422 -2.487,0 -4.969,0 -7.382,0 -1.609,0 -1.609,2.412 0,2.412 2.413,0 4.762,0 7.186,0 -0.142,0.268 -0.284,0.255 -0.425,0.357 -1.256,0.896 -0.052,3.016 1.217,2.109 1.184,-0.845 2.368,-1.678 3.552,-2.522 0.198,-0.111 0.347,-0.27 0.442,-0.464 0.183,-0.316 0.204,-0.672 0.07,-1.002 -0.083,-0.263 -0.253,-0.487 -0.506,-0.631 z"
         id="path89" />
      <path
         inkscape:connector-curvature="0"
         d="m 227.98,380.379 c -2.413,0 -4.896,0 -7.319,0 0.141,0 0.284,-0.199 0.426,-0.301 1.254,-0.895 0.05,-2.985 -1.218,-2.079 -1.185,0.845 -2.369,1.691 -3.551,2.536 -0.199,0.11 -0.348,0.275 -0.444,0.47 -0.181,0.316 -0.202,0.675 -0.07,1.005 0.084,0.263 0.255,0.493 0.507,0.636 1.186,0.903 2.372,1.808 3.558,2.711 1.237,0.942 2.438,-1.158 1.218,-2.087 -0.208,-0.158 -0.416,-0.211 -0.622,-0.478 2.488,0 5.103,0 7.515,0 1.609,0 1.609,-2.413 0,-2.413 z"
         id="path91" />
    </g>
  </g>
</svg>
