<?xml version="1.0" encoding="UTF-8" standalone="no"?>
<!-- Created with Inkscape (http://www.inkscape.org/) -->

<svg
   xmlns:dc="http://purl.org/dc/elements/1.1/"
   xmlns:cc="http://creativecommons.org/ns#"
   xmlns:rdf="http://www.w3.org/1999/02/22-rdf-syntax-ns#"
   xmlns:svg="http://www.w3.org/2000/svg"
   xmlns="http://www.w3.org/2000/svg"
   xmlns:sodipodi="http://sodipodi.sourceforge.net/DTD/sodipodi-0.dtd"
   xmlns:inkscape="http://www.inkscape.org/namespaces/inkscape"
   width="3.3863845mm"
   height="3.3866668mm"
   viewBox="0 0 11.999 12"
   id="svg4538"
   version="1.1"
   inkscape:version="0.91 r13725"
   sodipodi:docname="trash.svg">
  <defs
     id="defs4540" />
  <sodipodi:namedview
     id="base"
     pagecolor="#ffffff"
     bordercolor="#666666"
     borderopacity="1.0"
     inkscape:pageopacity="0.0"
     inkscape:pageshadow="2"
     inkscape:zoom="11.2"
     inkscape:cx="-0.16860397"
     inkscape:cy="12.010052"
     inkscape:document-units="px"
     inkscape:current-layer="layer1"
     showgrid="false"
     fit-margin-top="0"
     fit-margin-left="0"
     fit-margin-right="0"
     fit-margin-bottom="0"
     inkscape:window-width="1863"
     inkscape:window-height="1059"
     inkscape:window-x="57"
     inkscape:window-y="21"
     inkscape:window-maximized="1" />
  <metadata
     id="metadata4543">
    <rdf:RDF>
      <cc:Work
         rdf:about="">
        <dc:format>image/svg+xml</dc:format>
        <dc:type
           rdf:resource="http://purl.org/dc/dcmitype/StillImage" />
        <dc:title />
      </cc:Work>
    </rdf:RDF>
  </metadata>
  <g
     inkscape:label="Layer 1"
     inkscape:groupmode="layer"
     id="layer1"
     transform="translate(1925.9995,625.06637)">
    <path
       inkscape:connector-curvature="0"
       d="m -1915.1325,-622.73137 -1.046,0 c -0.671,-1.439 -2.125,-2.335 -3.837,-2.335 -1.712,0 -3.166,0.896 -3.837,2.335 l -0.999,0 c -0.667,0 -1.148,0.453 -1.148,1.047 l 0,0.012 c 0,0.594 0.482,0.998 1.148,0.998 l 0.236,0 0,5.636 c 0,1.024 0.875,1.972 2.023,1.972 l 5.199,0 c 1.148,0 2.008,-0.948 2.008,-1.972 l 0,-5.636 0.252,0 c 0.667,0 1.133,-0.405 1.133,-0.998 l 0,-0.012 c 0,-0.594 -0.466,-1.047 -1.132,-1.047 z m -4.882,-0.834 c 0.757,0 1.43,0.217 1.895,0.834 l -3.789,0 c 0.464,-0.616 1.137,-0.834 1.894,-0.834 z m -1.139,8.424 c 0,0.277 -0.267,0.5 -0.577,0.5 -0.31,0 -0.577,-0.224 -0.577,-0.5 l 0,-4.337 c 0,-0.277 0.267,-0.501 0.577,-0.501 0.31,0 0.577,0.224 0.577,0.501 l 0,4.337 z m 2.999,0 c 0,0.277 -0.266,0.5 -0.576,0.5 -0.31,0 -0.577,-0.224 -0.577,-0.5 l 0,-4.337 c 0,-0.277 0.267,-0.501 0.577,-0.501 0.31,0 0.576,0.224 0.576,0.501 l 0,4.337 z"
       id="path4481"
       style="fill:#6c6763;fill-opacity:1" />
  </g>
</svg>
