<?xml version="1.0" encoding="UTF-8" standalone="no"?>
<!-- Created with Inkscape (http://www.inkscape.org/) -->

<svg
   xmlns:dc="http://purl.org/dc/elements/1.1/"
   xmlns:cc="http://creativecommons.org/ns#"
   xmlns:rdf="http://www.w3.org/1999/02/22-rdf-syntax-ns#"
   xmlns:svg="http://www.w3.org/2000/svg"
   xmlns="http://www.w3.org/2000/svg"
   xmlns:sodipodi="http://sodipodi.sourceforge.net/DTD/sodipodi-0.dtd"
   xmlns:inkscape="http://www.inkscape.org/namespaces/inkscape"
   width="3.3864305mm"
   height="3.3868771mm"
   viewBox="0 0 11.999163 12.000745"
   id="svg3732"
   version="1.1"
   inkscape:version="0.92.1 r15371"
   sodipodi:docname="missed-call.svg">
  <defs
     id="defs3734" />
  <sodipodi:namedview
     id="base"
     pagecolor="#ffffff"
     bordercolor="#666666"
     borderopacity="1.0"
     inkscape:pageopacity="0.0"
     inkscape:pageshadow="2"
     inkscape:zoom="81.725"
     inkscape:cx="7.9964604"
     inkscape:cy="4.6502837"
     inkscape:document-units="px"
     inkscape:current-layer="layer1"
     showgrid="false"
     inkscape:window-width="1855"
     inkscape:window-height="1056"
     inkscape:window-x="65"
     inkscape:window-y="24"
     inkscape:window-maximized="1"
     fit-margin-top="0"
     fit-margin-left="0"
     fit-margin-right="0"
     fit-margin-bottom="0" />
  <metadata
     id="metadata3737">
    <rdf:RDF>
      <cc:Work
         rdf:about="">
        <dc:format>image/svg+xml</dc:format>
        <dc:type
           rdf:resource="http://purl.org/dc/dcmitype/StillImage" />
        <dc:title />
      </cc:Work>
    </rdf:RDF>
  </metadata>
  <g
     inkscape:label="Layer 1"
     inkscape:groupmode="layer"
     id="layer1"
     transform="translate(-9.590461,-25.772536)">
    <path
       inkscape:connector-curvature="0"
       d="m 18.038037,31.773111 c 1.014,-1.014 2.027,-2.028 3.041,-3.042 1.58,-1.58 -0.868,-4.028 -2.447,-2.448 -1.014,1.015 -2.027,2.028 -3.041,3.042 -1.015,-1.014 -2.028,-2.027 -3.042,-3.042 -1.58,-1.58 -4.0280005,0.868 -2.448,2.448 1.015,1.013 2.027,2.027 3.042,3.042 -1.015,1.014 -2.027,2.027 -3.042,3.042 -1.5800005,1.580001 0.868,4.027001 2.448,2.448001 1.014,-1.015 2.027,-2.028001 3.042,-3.042001 1.014,1.013 2.027,2.027001 3.041,3.041001 1.579,1.58 4.027,-0.868 2.447,-2.448001 -1.013,-1.014 -2.028,-2.028 -3.041,-3.041 z"
       id="path3663"
       style="fill:#ef3e42;fill-opacity:0.94117647" />
  </g>
</svg>
