<?xml version="1.0" encoding="UTF-8" standalone="no"?>
<!-- Created with Inkscape (http://www.inkscape.org/) -->

<svg
   xmlns:dc="http://purl.org/dc/elements/1.1/"
   xmlns:cc="http://creativecommons.org/ns#"
   xmlns:rdf="http://www.w3.org/1999/02/22-rdf-syntax-ns#"
   xmlns:svg="http://www.w3.org/2000/svg"
   xmlns="http://www.w3.org/2000/svg"
   xmlns:sodipodi="http://sodipodi.sourceforge.net/DTD/sodipodi-0.dtd"
   xmlns:inkscape="http://www.inkscape.org/namespaces/inkscape"
   width="3.3867455mm"
   height="3.3867097mm"
   viewBox="0 0 12.000279 12.000152"
   id="svg3732"
   version="1.1"
   inkscape:version="0.92.1 r15371"
   sodipodi:docname="received-call.svg">
  <defs
     id="defs3734" />
  <sodipodi:namedview
     id="base"
     pagecolor="#ffffff"
     bordercolor="#666666"
     borderopacity="1.0"
     inkscape:pageopacity="0.0"
     inkscape:pageshadow="2"
     inkscape:zoom="81.725"
     inkscape:cx="4.3629504"
     inkscape:cy="0.16776829"
     inkscape:document-units="px"
     inkscape:current-layer="layer1"
     showgrid="false"
     inkscape:window-width="1855"
     inkscape:window-height="1056"
     inkscape:window-x="65"
     inkscape:window-y="24"
     inkscape:window-maximized="1"
     fit-margin-top="0"
     fit-margin-left="0"
     fit-margin-right="0"
     fit-margin-bottom="0" />
  <metadata
     id="metadata3737">
    <rdf:RDF>
      <cc:Work
         rdf:about="">
        <dc:format>image/svg+xml</dc:format>
        <dc:type
           rdf:resource="http://purl.org/dc/dcmitype/StillImage" />
        <dc:title />
      </cc:Work>
    </rdf:RDF>
  </metadata>
  <g
     inkscape:label="Layer 1"
     inkscape:groupmode="layer"
     id="layer1"
     transform="translate(-13.223971,-21.290613)">
    <path
       inkscape:connector-curvature="0"
       d="m 13.269971,31.159766 c -0.003,0.039 -0.046,0.079 -0.046,0.119 0,0.036 0,0.072 0,0.108 0,0.925 0.871,1.904 1.811,1.904 2.278,0 4.335,0 6.64,0 2.305,0 2.305,-3.289 0,-3.289 0,0 -1.153,0 -2.663,0 1.901,-2.024 3.804,-3.878 5.705,-5.757 1.569,-1.55 -0.86,-4.011 -2.429,-2.461 -1.852,1.829 -3.702,3.629 -5.554,5.458 -0.005,-0.891 -0.008,-1.797 -0.013,-2.679 -0.011,-2.189 -3.47,-2.219 -3.459,-0.028 0.01,2.186 -0.003,4.434 0.008,6.625 z"
       id="path3661"
       style="fill:#ef3e42;fill-opacity:1" />
  </g>
</svg>
