<?xml version="1.0" encoding="UTF-8" standalone="no"?>
<!-- Created with Inkscape (http://www.inkscape.org/) -->

<svg
   xmlns:dc="http://purl.org/dc/elements/1.1/"
   xmlns:cc="http://creativecommons.org/ns#"
   xmlns:rdf="http://www.w3.org/1999/02/22-rdf-syntax-ns#"
   xmlns:svg="http://www.w3.org/2000/svg"
   xmlns="http://www.w3.org/2000/svg"
   xmlns:sodipodi="http://sodipodi.sourceforge.net/DTD/sodipodi-0.dtd"
   xmlns:inkscape="http://www.inkscape.org/namespaces/inkscape"
   width="3.3861623mm"
   height="3.3866191mm"
   viewBox="0 0 11.998213 11.999831"
   id="svg3732"
   version="1.1"
   inkscape:version="0.92.1 r15371"
   sodipodi:docname="sent-call.svg">
  <defs
     id="defs3734" />
  <sodipodi:namedview
     id="base"
     pagecolor="#ffffff"
     bordercolor="#666666"
     borderopacity="1.0"
     inkscape:pageopacity="0.0"
     inkscape:pageshadow="2"
     inkscape:zoom="81.725"
     inkscape:cx="2.1128106"
     inkscape:cy="2.3819777"
     inkscape:document-units="px"
     inkscape:current-layer="layer1"
     showgrid="false"
     inkscape:window-width="1855"
     inkscape:window-height="1056"
     inkscape:window-x="65"
     inkscape:window-y="24"
     inkscape:window-maximized="1"
     fit-margin-top="0"
     fit-margin-left="0"
     fit-margin-right="0"
     fit-margin-bottom="0" />
  <metadata
     id="metadata3737">
    <rdf:RDF>
      <cc:Work
         rdf:about="">
        <dc:format>image/svg+xml</dc:format>
        <dc:type
           rdf:resource="http://purl.org/dc/dcmitype/StillImage" />
        <dc:title />
      </cc:Work>
    </rdf:RDF>
  </metadata>
  <g
     inkscape:label="Layer 1"
     inkscape:groupmode="layer"
     id="layer1"
     transform="translate(-15.429468,-23.505144)">
    <path
       inkscape:connector-curvature="0"
       d="m 27.37268,25.521144 c 0.003,-0.04 0.055,-0.08 0.055,-0.121 0,-0.036 0,-0.072 0,-0.109 0,-0.933 -0.887,-1.786 -1.825,-1.786 -2.275,0 -4.312,0 -6.613,0 -2.301,0 -2.302,3.316 0,3.316 0,0 1.135,0 2.644,0 -1.9,2.04 -3.799,3.842 -5.698,5.736 -1.566,1.562 0.859,4.008 2.426,2.447 1.849,-1.844 3.697,-3.675 5.546,-5.519 0.005,0.897 0.009,1.803 0.013,2.692 0.01,2.207 3.469,2.232 3.458,0.025 -0.011,-2.202 0.005,-4.472 -0.006,-6.681 z"
       id="path3647"
       style="fill:#ef3e42;fill-opacity:1" />
  </g>
</svg>
