<?xml version="1.0" encoding="UTF-8" standalone="no"?>
<!-- Created with Inkscape (http://www.inkscape.org/) -->

<svg
   xmlns:dc="http://purl.org/dc/elements/1.1/"
   xmlns:cc="http://creativecommons.org/ns#"
   xmlns:rdf="http://www.w3.org/1999/02/22-rdf-syntax-ns#"
   xmlns:svg="http://www.w3.org/2000/svg"
   xmlns="http://www.w3.org/2000/svg"
   xmlns:sodipodi="http://sodipodi.sourceforge.net/DTD/sodipodi-0.dtd"
   xmlns:inkscape="http://www.inkscape.org/namespaces/inkscape"
   width="30.000648"
   height="30.000265"
   id="svg3460"
   version="1.1"
   inkscape:version="0.48.3.1 r9886"
   sodipodi:docname="New document 18">
  <defs
     id="defs3462" />
  <sodipodi:namedview
     id="base"
     pagecolor="#ffffff"
     bordercolor="#666666"
     borderopacity="1.0"
     inkscape:pageopacity="0.0"
     inkscape:pageshadow="2"
     inkscape:zoom="0.35"
     inkscape:cx="15.000324"
     inkscape:cy="15.000136"
     inkscape:document-units="px"
     inkscape:current-layer="layer1"
     showgrid="false"
     fit-margin-top="0"
     fit-margin-left="0"
     fit-margin-right="0"
     fit-margin-bottom="0"
     inkscape:window-width="532"
     inkscape:window-height="422"
     inkscape:window-x="1"
     inkscape:window-y="83"
     inkscape:window-maximized="0" />
  <metadata
     id="metadata3465">
    <rdf:RDF>
      <cc:Work
         rdf:about="">
        <dc:format>image/svg+xml</dc:format>
        <dc:type
           rdf:resource="http://purl.org/dc/dcmitype/StillImage" />
        <dc:title></dc:title>
      </cc:Work>
    </rdf:RDF>
  </metadata>
  <g
     inkscape:label="Layer 1"
     inkscape:groupmode="layer"
     id="layer1"
     transform="translate(-359.99968,-517.36205)">
    <g
       transform="translate(92.906325,215.37802)"
       id="g25">
      <g
         id="g27">
        <path
           inkscape:connector-curvature="0"
           d="m 289.784,323.038 c -1.552,-1.551 -3.104,-3.103 -4.656,-4.653 0.732,-1.069 1.187,-2.341 1.284,-3.648 0.014,-0.07 0.023,-0.143 0.02,-0.226 0.003,-0.08 -0.005,-0.152 -0.018,-0.221 -0.261,-3.67 -3.014,-6.361 -6.725,-6.518 -3.781,-0.163 -6.594,3.196 -6.744,6.738 -0.162,3.781 3.199,6.591 6.744,6.742 1.687,0.07 3.181,-0.562 4.33,-1.596 1.525,1.524 3.049,3.048 4.574,4.572 0.77,0.768 1.959,-0.42 1.191,-1.19 z m -15.154,-8.526 c -0.12,-2.842 2.396,-4.944 5.059,-5.057 2.844,-0.121 4.946,2.395 5.058,5.057 -0.277,6.522 -9.839,6.523 -10.117,0 z"
           id="path29" />
        <path
           style="fill:#1d1d1b"
           inkscape:connector-curvature="0"
           d="m 289.157,324.744 0,0 c -0.279,0 -0.539,-0.113 -0.754,-0.327 l -4.397,-4.393 c -1.245,1.042 -2.733,1.563 -4.328,1.496 -1.816,-0.078 -3.617,-0.837 -4.934,-2.083 -1.412,-1.334 -2.146,-3.087 -2.066,-4.938 0.146,-3.442 2.893,-7.177 7.022,-6.996 3.833,0.162 6.703,2.938 6.979,6.751 0.016,0.091 0.023,0.179 0.02,0.266 0.003,0.073 -0.004,0.161 -0.021,0.252 -0.097,1.268 -0.513,2.5 -1.205,3.577 l 4.5,4.499 c 0.321,0.32 0.413,0.754 0.244,1.16 -0.179,0.433 -0.616,0.736 -1.06,0.736 z m -5.127,-5.456 4.752,4.75 c 0.114,0.112 0.239,0.17 0.375,0.17 0.23,0 0.469,-0.171 0.565,-0.403 0.061,-0.146 0.087,-0.363 -0.128,-0.576 l -4.813,-4.812 0.125,-0.184 c 0.717,-1.049 1.144,-2.264 1.238,-3.519 l 0.005,-0.034 c 0.012,-0.056 0.017,-0.107 0.015,-0.16 0.001,-0.07 -0.002,-0.12 -0.015,-0.177 l -0.004,-0.034 c -0.25,-3.541 -2.91,-6.119 -6.468,-6.271 -0.083,-0.005 -0.168,-0.006 -0.25,-0.006 -2.856,0 -6.044,2.481 -6.216,6.489 -0.157,3.694 3.228,6.323 6.488,6.462 1.531,0.062 2.962,-0.467 4.14,-1.526 l 0.191,-0.169 z m -4.34,0.383 c -2.461,0 -5.177,-1.609 -5.327,-5.147 -0.104,-2.453 1.897,-5.19 5.315,-5.337 3.138,-0.135 5.227,2.699 5.338,5.313 -0.151,3.562 -2.868,5.171 -5.326,5.171 z m 0.195,-9.951 c -0.061,0 -0.124,10e-4 -0.185,0.004 -3.086,0.13 -4.896,2.582 -4.803,4.776 0.135,3.186 2.578,4.637 4.792,4.637 2.211,0 4.655,-1.451 4.79,-4.637 -0.097,-2.287 -1.882,-4.78 -4.594,-4.78 z"
           id="path31" />
      </g>
      <path
         inkscape:connector-curvature="0"
         d="m 281.705,331.973 c 8.398,0.334 15.279,-6.785 15.389,-15.004 -0.078,-5.975 -3.594,-11.417 -9.112,-13.791 -5.571,-2.397 -12.036,-1.088 -16.396,3.058 -4.358,4.146 -5.643,10.813 -3.426,16.346 2.224,5.555 7.615,9.153 13.545,9.391 z m -4.953,-26.426 c 5.603,-2.759 12.532,-0.521 15.904,4.57 1.348,2.036 1.993,4.427 2.026,6.852 -0.084,6.262 -4.577,11.396 -10.719,12.464 -6.14,1.068 -12.137,-3.022 -13.953,-8.827 -1.875,-5.994 1.228,-12.343 6.742,-15.059 z"
         id="path33" />
    </g>
  </g>
</svg>
