<?xml version="1.0" encoding="UTF-8" standalone="no"?>
<!-- Created with Inkscape (http://www.inkscape.org/) -->

<svg
   xmlns:dc="http://purl.org/dc/elements/1.1/"
   xmlns:cc="http://creativecommons.org/ns#"
   xmlns:rdf="http://www.w3.org/1999/02/22-rdf-syntax-ns#"
   xmlns:svg="http://www.w3.org/2000/svg"
   xmlns="http://www.w3.org/2000/svg"
   xmlns:sodipodi="http://sodipodi.sourceforge.net/DTD/sodipodi-0.dtd"
   xmlns:inkscape="http://www.inkscape.org/namespaces/inkscape"
   width="12.999381"
   height="13.000084"
   id="svg4921"
   version="1.1"
   inkscape:version="0.48.4 r9939"
   sodipodi:docname="search-regular.svg">
  <defs
     id="defs4923" />
  <sodipodi:namedview
     id="base"
     pagecolor="#ffffff"
     bordercolor="#666666"
     borderopacity="1.0"
     inkscape:pageopacity="0.0"
     inkscape:pageshadow="2"
     inkscape:zoom="15.839192"
     inkscape:cx="8.449783"
     inkscape:cy="12.150805"
     inkscape:document-units="px"
     inkscape:current-layer="layer1"
     showgrid="false"
     fit-margin-top="0"
     fit-margin-left="0"
     fit-margin-right="0"
     fit-margin-bottom="0"
     inkscape:window-width="753"
     inkscape:window-height="383"
     inkscape:window-x="670"
     inkscape:window-y="229"
     inkscape:window-maximized="0" />
  <metadata
     id="metadata4926">
    <rdf:RDF>
      <cc:Work
         rdf:about="">
        <dc:format>image/svg+xml</dc:format>
        <dc:type
           rdf:resource="http://purl.org/dc/dcmitype/StillImage" />
        <dc:title />
      </cc:Work>
    </rdf:RDF>
  </metadata>
  <g
     inkscape:label="Layer 1"
     inkscape:groupmode="layer"
     id="layer1"
     transform="translate(-176.35745,-234.43357)">
    <path
       inkscape:connector-curvature="0"
       d="m 189.16772,246.31388 c -1.181,-1.207 -2.36,-2.414 -3.541,-3.62 0.557,-0.832 0.903,-1.821 0.977,-2.838 0.012,-0.055 0.018,-0.112 0.016,-0.175 0.002,-0.062 -0.004,-0.119 -0.015,-0.172 -0.197,-2.854 -2.292,-4.948 -5.114,-5.071 -2.876,-0.125 -5.014,2.488 -5.129,5.244 -0.123,2.941 2.434,5.126 5.129,5.244 1.283,0.055 2.419,-0.436 3.294,-1.242 1.159,1.186 2.318,2.372 3.479,3.557 0.583,0.597 1.489,-0.329 0.904,-0.927 z m -11.525,-6.632 c -0.091,-2.211 1.821,-3.845 3.849,-3.933 2.162,-0.094 3.761,1.861 3.848,3.933 -0.213,5.074 -7.485,5.074 -7.697,0 z"
       id="path4836"
       style="fill:#ffffff;fill-opacity:1" />
  </g>
</svg>
