<?xml version="1.0" encoding="UTF-8" standalone="no"?>
<!-- Created with Inkscape (http://www.inkscape.org/) -->

<svg
   xmlns:dc="http://purl.org/dc/elements/1.1/"
   xmlns:cc="http://creativecommons.org/ns#"
   xmlns:rdf="http://www.w3.org/1999/02/22-rdf-syntax-ns#"
   xmlns:svg="http://www.w3.org/2000/svg"
   xmlns="http://www.w3.org/2000/svg"
   xmlns:sodipodi="http://sodipodi.sourceforge.net/DTD/sodipodi-0.dtd"
   xmlns:inkscape="http://www.inkscape.org/namespaces/inkscape"
   width="3.3867822mm"
   height="3.3866503mm"
   viewBox="0 0 12.000409 11.999942"
   id="svg4568"
   version="1.1"
   inkscape:version="0.91 r13725"
   sodipodi:docname="star-empty.svg">
  <defs
     id="defs4570" />
  <sodipodi:namedview
     id="base"
     pagecolor="#ffffff"
     bordercolor="#666666"
     borderopacity="1.0"
     inkscape:pageopacity="0.0"
     inkscape:pageshadow="2"
     inkscape:zoom="40.96"
     inkscape:cx="6.1451819"
     inkscape:cy="7.4557242"
     inkscape:document-units="px"
     inkscape:current-layer="layer1"
     showgrid="false"
     inkscape:window-width="1863"
     inkscape:window-height="1059"
     inkscape:window-x="1977"
     inkscape:window-y="21"
     inkscape:window-maximized="1"
     fit-margin-top="0"
     fit-margin-left="0"
     fit-margin-right="0"
     fit-margin-bottom="0" />
  <metadata
     id="metadata4573">
    <rdf:RDF>
      <cc:Work
         rdf:about="">
        <dc:format>image/svg+xml</dc:format>
        <dc:type
           rdf:resource="http://purl.org/dc/dcmitype/StillImage" />
        <dc:title></dc:title>
      </cc:Work>
    </rdf:RDF>
  </metadata>
  <g
     inkscape:label="Layer 1"
     inkscape:groupmode="layer"
     id="layer1"
     transform="translate(-636.85694,-489.21938)">
    <path
       d="M 6 0.00390625 C 5.77 -0.02109375 5.5373906 0.078140625 5.4003906 0.36914062 C 4.8983906 1.4331406 4.3965312 2.4955938 3.8945312 3.5585938 C 3.8095312 3.5725938 3.7236719 3.5846563 3.6386719 3.5976562 C 3.2406719 3.6586562 2.8442656 3.7182969 2.4472656 3.7792969 C 1.7982656 3.8782969 1.149 3.9771719 0.5 4.0761719 C -0.032 4.1571719 -0.14664063 4.9449688 0.19335938 5.2929688 C 0.99535938 6.1099688 1.7957031 6.9280938 2.5957031 7.7460938 C 2.4107031 8.8720937 2.2279687 9.9970569 2.0429688 11.123047 C 1.9399688 11.749047 2.4924531 12.213437 3.0644531 11.898438 C 4.0424531 11.360437 5.0200469 10.884484 5.9980469 10.271484 C 6.9770469 10.885484 7.9536406 11.360437 8.9316406 11.898438 C 9.5046406 12.213437 10.056125 11.725609 9.953125 11.099609 C 9.768125 9.9756194 9.5843906 8.8592813 9.4003906 7.7382812 C 10.201391 6.9222813 11.002734 6.1070625 11.802734 5.2890625 C 12.148734 4.9420625 12.033953 4.1552188 11.501953 4.0742188 L 8.1054688 3.5585938 C 8.0724687 3.4875937 8.0389062 3.4167031 8.0039062 3.3457031 C 7.8259063 2.9687031 7.6487031 2.5928437 7.4707031 2.2148438 C 7.1807031 1.5998437 6.8915625 0.98514062 6.6015625 0.36914062 C 6.4635625 0.078140625 6.23 -0.02109375 6 0.00390625 z M 5.9902344 0.51757812 C 6.0190826 0.52318557 6.0659236 0.50616898 6.0878906 0.52929688 C 6.6012724 1.5245607 7.0531563 2.5506988 7.5371094 3.5605469 C 7.6122713 3.795595 7.7923514 3.9716016 8.0195312 4.0625 C 9.1608362 4.2385637 10.297438 4.4023152 11.435547 4.59375 C 11.488519 4.6860981 11.51288 4.8280717 11.429688 4.9101562 C 10.713698 5.7010503 9.9448494 6.440461 9.203125 7.2070312 C 9.0226338 7.3508252 8.9120596 7.5582915 8.8984375 7.7890625 C 9.0319007 8.7265896 9.2051933 9.6653021 9.3496094 10.603516 C 9.3731933 10.843082 9.4571478 11.08704 9.4394531 11.324219 C 9.4280571 11.451357 9.2871958 11.522303 9.1855469 11.439453 C 8.2956816 10.981995 7.4050035 10.506492 6.53125 9.9960938 C 6.3123785 9.8449674 6.0326713 9.685742 5.7675781 9.8242188 C 4.7899826 10.384605 3.8112251 10.932044 2.8066406 11.445312 C 2.7036692 11.534799 2.5520181 11.448773 2.5488281 11.320312 C 2.6927795 10.225321 2.8934515 9.1363069 3.0664062 8.0449219 C 3.1357736 7.8235095 3.0810315 7.5970175 2.96875 7.4003906 C 2.1684114 6.5587172 1.331668 5.7545243 0.55078125 4.8945312 C 0.53365815 4.8070458 0.50054802 4.6692579 0.57226562 4.5917969 C 1.6234462 4.4149802 2.6851311 4.2644163 3.7402344 4.0996094 C 3.9867283 4.0943345 4.2056224 3.9728282 4.3574219 3.78125 C 4.8340579 2.7737549 5.3028816 1.7617742 5.7910156 0.75976562 C 5.8587759 0.68451636 5.8514678 0.49198307 5.9902344 0.51757812 z "
       transform="translate(636.85694,489.21938)"
       id="path4374"
       style="opacity:1;fill:#e77d39;fill-opacity:1" />
  </g>
</svg>
