<?xml version="1.0" encoding="UTF-8" standalone="no"?>
<!-- Created with Inkscape (http://www.inkscape.org/) -->

<svg
   xmlns:dc="http://purl.org/dc/elements/1.1/"
   xmlns:cc="http://creativecommons.org/ns#"
   xmlns:rdf="http://www.w3.org/1999/02/22-rdf-syntax-ns#"
   xmlns:svg="http://www.w3.org/2000/svg"
   xmlns="http://www.w3.org/2000/svg"
   xmlns:sodipodi="http://sodipodi.sourceforge.net/DTD/sodipodi-0.dtd"
   xmlns:inkscape="http://www.inkscape.org/namespaces/inkscape"
   width="30.000727"
   height="29.998907"
   id="svg3226"
   version="1.1"
   inkscape:version="0.48.3.1 r9886"
   sodipodi:docname="conference.svg">
  <defs
     id="defs3228" />
  <sodipodi:namedview
     id="base"
     pagecolor="#ffffff"
     bordercolor="#666666"
     borderopacity="1.0"
     inkscape:pageopacity="0.0"
     inkscape:pageshadow="2"
     inkscape:zoom="5.598901"
     inkscape:cx="14.89273"
     inkscape:cy="14.828989"
     inkscape:current-layer="layer1"
     showgrid="true"
     inkscape:grid-bbox="true"
     inkscape:document-units="px"
     inkscape:window-width="532"
     inkscape:window-height="422"
     inkscape:window-x="1001"
     inkscape:window-y="395"
     inkscape:window-maximized="0"
     fit-margin-top="0"
     fit-margin-left="0"
     fit-margin-right="0"
     fit-margin-bottom="0" />
  <metadata
     id="metadata3231">
    <rdf:RDF>
      <cc:Work
         rdf:about="">
        <dc:format>image/svg+xml</dc:format>
        <dc:type
           rdf:resource="http://purl.org/dc/dcmitype/StillImage" />
        <dc:title />
      </cc:Work>
    </rdf:RDF>
  </metadata>
  <g
     id="layer1"
     inkscape:label="Layer 1"
     inkscape:groupmode="layer"
     transform="translate(-0.89561275,-1.2831723)">
    <g
       transform="translate(-206.77566,-420.96635)"
       id="g35">
      <path
         inkscape:connector-curvature="0"
         d="m 227.669,440.717 c 10e-4,0.017 -0.021,0.029 -0.021,0.043 0.019,-0.015 0.037,-0.028 0.037,-0.043 0,0.13 0,0.213 0,0.481 1.073,0 2.331,0 3.477,0 0.314,0 0.545,-0.49 0.545,-0.803 0,-0.224 0,-0.447 0,-0.671 0,0.011 0.016,0.021 0.003,0.033 -0.001,-0.012 0.024,-0.021 0.023,-0.033 -0.077,-1.29 -0.905,-2.288 -2.028,-2.725 0.521,-0.371 0.875,-0.989 0.957,-1.633 0.013,-0.053 0.023,-0.108 0.019,-0.172 0.004,-0.062 -0.002,-0.118 -0.015,-0.17 -0.134,-1.127 -0.978,-1.921 -2.137,-1.983 -1.215,-0.065 -2.095,1.035 -2.155,2.153 -0.04,0.763 0.38,1.394 0.976,1.771 -0.444,0.175 -0.84,0.451 -1.164,0.796 0.845,0.718 1.41,1.742 1.483,2.956 z"
         id="path37" />
      <path
         inkscape:connector-curvature="0"
         d="m 214.33,441.198 c 1.146,0 2.362,0 3.435,0 0,-0.269 0,-0.351 0,-0.481 0,0.015 0.038,0.029 0.058,0.043 0,-0.015 -0.001,-0.026 0,-0.043 0.073,-1.213 0.637,-2.238 1.481,-2.955 -0.323,-0.345 -0.719,-0.621 -1.163,-0.796 0.596,-0.378 1.016,-1.009 0.974,-1.772 -0.061,-1.118 -0.939,-2.217 -2.153,-2.153 -1.16,0.062 -2.005,0.857 -2.138,1.984 -0.013,0.051 -0.019,0.107 -0.016,0.169 -0.004,0.063 0.005,0.119 0.019,0.173 0.082,0.644 0.432,1.261 0.954,1.632 -1.124,0.438 -1.957,1.436 -2.034,2.726 -0.001,0.011 0.014,0.02 0.014,0.033 -0.015,-0.012 -0.018,-0.021 -0.018,-0.033 0,0.223 0,0.446 0,0.67 -0.001,0.313 0.272,0.803 0.587,0.803 z"
         id="path39" />
      <path
         inkscape:connector-curvature="0"
         d="m 218.409,440.686 c -0.083,0.125 -0.108,0.265 -0.108,0.409 0,0.304 0,0.61 0,0.916 0,0.43 0.397,0.795 0.829,0.795 2.399,0 4.799,0 7.2,0 0.429,0 0.819,-0.363 0.819,-0.795 0,-0.306 0,-0.612 0,-0.916 0,0.014 -0.013,0.029 -0.031,0.045 0,-0.016 0.015,-0.029 0.014,-0.045 -0.11,-1.833 -1.333,-3.234 -2.958,-3.795 0.808,-0.489 1.355,-1.395 1.476,-2.346 0.018,-0.073 0.031,-0.15 0.026,-0.237 0.006,-0.083 -0.005,-0.161 -0.021,-0.231 -0.184,-1.542 -1.338,-2.63 -2.925,-2.716 -1.665,-0.09 -2.868,1.416 -2.95,2.948 -0.061,1.123 0.607,2.034 1.517,2.534 -1.5,0.509 -2.64,1.859 -2.888,3.434 z m 7.919,-0.428 c -0.001,0 -0.003,0.001 -0.005,0.001 -0.001,0 -0.002,-0.001 -0.004,-0.001 0.001,0 0.018,0 0.009,0 z"
         id="path41" />
      <path
         inkscape:connector-curvature="0"
         d="m 222.283,452.237 c 8.397,0.336 15.277,-6.784 15.389,-15.001 -0.081,-5.977 -3.594,-11.418 -9.113,-13.793 -5.569,-2.397 -12.035,-1.086 -16.395,3.059 -4.359,4.145 -5.642,10.814 -3.427,16.346 2.227,5.554 7.615,9.153 13.546,9.389 z m -4.954,-26.425 c 5.602,-2.759 12.531,-0.522 15.903,4.57 1.348,2.036 1.993,4.427 2.025,6.853 -0.083,6.261 -4.576,11.396 -10.718,12.465 -6.139,1.066 -12.135,-3.025 -13.951,-8.831 -1.874,-5.992 1.227,-12.342 6.741,-15.057 z"
         id="path43" />
    </g>
  </g>
</svg>
