<?xml version="1.0" encoding="UTF-8" standalone="no"?>
<!-- Created with Inkscape (http://www.inkscape.org/) -->

<svg
   xmlns:dc="http://purl.org/dc/elements/1.1/"
   xmlns:cc="http://creativecommons.org/ns#"
   xmlns:rdf="http://www.w3.org/1999/02/22-rdf-syntax-ns#"
   xmlns:svg="http://www.w3.org/2000/svg"
   xmlns="http://www.w3.org/2000/svg"
   xmlns:sodipodi="http://sodipodi.sourceforge.net/DTD/sodipodi-0.dtd"
   xmlns:inkscape="http://www.inkscape.org/namespaces/inkscape"
   width="29.999693"
   height="29.998907"
   id="svg3156"
   version="1.1"
   inkscape:version="0.48.3.1 r9886"
   sodipodi:docname="fax.svg">
  <defs
     id="defs3158" />
  <sodipodi:namedview
     id="base"
     pagecolor="#ffffff"
     bordercolor="#666666"
     borderopacity="1.0"
     inkscape:pageopacity="0.0"
     inkscape:pageshadow="2"
     inkscape:zoom="5.598901"
     inkscape:cx="19.019837"
     inkscape:cy="20.042301"
     inkscape:current-layer="layer1"
     showgrid="true"
     inkscape:grid-bbox="true"
     inkscape:document-units="px"
     inkscape:window-width="532"
     inkscape:window-height="422"
     inkscape:window-x="934"
     inkscape:window-y="285"
     inkscape:window-maximized="0"
     fit-margin-top="0"
     fit-margin-left="0"
     fit-margin-right="0"
     fit-margin-bottom="0" />
  <metadata
     id="metadata3161">
    <rdf:RDF>
      <cc:Work
         rdf:about="">
        <dc:format>image/svg+xml</dc:format>
        <dc:type
           rdf:resource="http://purl.org/dc/dcmitype/StillImage" />
        <dc:title />
      </cc:Work>
    </rdf:RDF>
  </metadata>
  <g
     id="layer1"
     inkscape:label="Layer 1"
     inkscape:groupmode="layer"
     transform="translate(-0.98543642,-1.2831723)">
    <g
       transform="translate(-206.62887,-240.38735)"
       id="g15">
      <path
         inkscape:connector-curvature="0"
         d="m 216.84,263.206 h 11.718 c 1.261,0 2.155,-0.855 2.155,-2.13 v -2.634 c 0,-1.277 -0.895,-2.472 -2.155,-2.472 h -1.062 c 0,-0.681 0,-1.359 0,-2.04 0,-0.701 0.178,-1.319 -0.355,-1.853 -0.63,-0.629 -1.227,-1.261 -1.856,-1.891 -0.033,-0.032 -0.066,-0.054 -0.098,-0.08 -0.133,-0.177 -0.344,-0.301 -0.639,-0.301 -1.073,0 -2.213,0 -3.392,0 -1.487,0 -3.135,0.083 -3.383,1.932 -0.139,1.032 -0.195,2.236 -0.195,3.277 0,0.319 0,0.638 0,0.956 h -0.737 c -1.262,0 -2.479,1.195 -2.479,2.472 v 2.634 c 0,1.275 1.217,2.13 2.478,2.13 z m 2.895,-11.403 c 0,-0.669 1.292,-0.389 1.776,-0.389 0.888,0 1.667,0 2.525,0 0.005,0.006 0.01,0.014 0.016,0.02 0.604,0.604 1.213,1.207 1.818,1.81 0.023,1.37 0.083,4.87 -0.113,4.87 -1.973,0 -3.945,0 -5.918,0 -0.214,0 -0.104,-5.716 -0.104,-6.311 z"
         id="path17" />
      <path
         inkscape:connector-curvature="0"
         d="m 221.063,254.629 h 3.216 c 0.296,0 0.537,-0.24 0.537,-0.536 0,-0.296 -0.241,-0.535 -0.537,-0.535 h -3.216 c -0.297,0 -0.536,0.239 -0.536,0.535 0,0.296 0.239,0.536 0.536,0.536 z"
         id="path19" />
      <path
         inkscape:connector-curvature="0"
         d="m 221.063,256.774 h 3.216 c 0.296,0 0.537,-0.241 0.537,-0.536 0,-0.295 -0.241,-0.536 -0.537,-0.536 h -3.216 c -0.297,0 -0.536,0.241 -0.536,0.536 0,0.295 0.239,0.536 0.536,0.536 z"
         id="path21" />
      <path
         inkscape:connector-curvature="0"
         d="m 222.226,271.658 c 8.397,0.336 15.278,-6.784 15.388,-15.002 -0.081,-5.976 -3.593,-11.417 -9.112,-13.792 -5.571,-2.397 -12.036,-1.086 -16.394,3.059 -4.36,4.145 -5.643,10.814 -3.428,16.346 2.225,5.554 7.614,9.154 13.546,9.389 z m -4.955,-26.425 c 5.603,-2.76 12.531,-0.522 15.904,4.57 1.348,2.036 1.993,4.427 2.025,6.853 -0.083,6.261 -4.576,11.396 -10.718,12.464 -6.141,1.067 -12.135,-3.024 -13.951,-8.831 -1.876,-5.991 1.227,-12.341 6.74,-15.056 z"
         id="path23" />
    </g>
  </g>
</svg>
