<?xml version="1.0" encoding="UTF-8" standalone="no"?>
<!-- Created with Inkscape (http://www.inkscape.org/) -->

<svg
   xmlns:dc="http://purl.org/dc/elements/1.1/"
   xmlns:cc="http://creativecommons.org/ns#"
   xmlns:rdf="http://www.w3.org/1999/02/22-rdf-syntax-ns#"
   xmlns:svg="http://www.w3.org/2000/svg"
   xmlns="http://www.w3.org/2000/svg"
   xmlns:sodipodi="http://sodipodi.sourceforge.net/DTD/sodipodi-0.dtd"
   xmlns:inkscape="http://www.inkscape.org/namespaces/inkscape"
   width="29.998728"
   height="30.000265"
   id="svg3170"
   version="1.1"
   inkscape:version="0.48.3.1 r9886"
   sodipodi:docname="info.svg">
  <defs
     id="defs3172" />
  <sodipodi:namedview
     id="base"
     pagecolor="#ffffff"
     bordercolor="#666666"
     borderopacity="1.0"
     inkscape:pageopacity="0.0"
     inkscape:pageshadow="2"
     inkscape:zoom="3.959798"
     inkscape:cx="15.149043"
     inkscape:cy="27.56495"
     inkscape:document-units="px"
     inkscape:current-layer="layer1"
     showgrid="false"
     fit-margin-top="0"
     fit-margin-left="0"
     fit-margin-right="0"
     fit-margin-bottom="0"
     inkscape:window-width="532"
     inkscape:window-height="422"
     inkscape:window-x="1"
     inkscape:window-y="83"
     inkscape:window-maximized="0" />
  <metadata
     id="metadata3175">
    <rdf:RDF>
      <cc:Work
         rdf:about="">
        <dc:format>image/svg+xml</dc:format>
        <dc:type
           rdf:resource="http://purl.org/dc/dcmitype/StillImage" />
        <dc:title></dc:title>
      </cc:Work>
    </rdf:RDF>
  </metadata>
  <g
     inkscape:label="Layer 1"
     inkscape:groupmode="layer"
     id="layer1"
     transform="translate(-410.71492,-491.64776)">
    <g
       transform="matrix(1,0,0,-1,143.62265,943.89606)"
       id="g65">
      <path
         inkscape:connector-curvature="0"
         d="m 287.978,423.442 c -5.569,-2.397 -12.034,-1.088 -16.393,3.058 -4.359,4.145 -5.642,10.815 -3.427,16.345 2.227,5.556 7.615,9.156 13.545,9.392 8.397,0.334 15.277,-6.785 15.388,-15.002 -0.079,-5.976 -3.594,-11.417 -9.113,-13.793 z m -4.018,26.257 c -6.139,1.065 -12.135,-3.025 -13.951,-8.83 -1.875,-5.992 1.226,-12.342 6.741,-15.057 5.602,-2.759 12.531,-0.523 15.903,4.569 1.348,2.036 1.994,4.427 2.025,6.853 -0.083,6.261 -4.577,11.395 -10.718,12.465 z"
         id="path67" />
      <path
         inkscape:connector-curvature="0"
         d="m 282.294,434.62 h -0.03 c -1.028,0 -1.861,0.833 -1.861,1.861 v 6.729 c 0,1.027 0.833,1.86 1.861,1.86 h 0.03 c 1.029,0 1.862,-0.833 1.862,-1.86 v -6.729 c 0,-1.029 -0.833,-1.861 -1.862,-1.861 z"
         id="path69" />
      <path
         inkscape:connector-curvature="0"
         d="m 282.294,429.259 h -0.03 c -1.028,0 -1.861,0.833 -1.861,1.862 v 0.029 c 0,1.028 0.833,1.861 1.861,1.861 h 0.03 c 1.029,0 1.862,-0.833 1.862,-1.861 v -0.029 c 0,-1.029 -0.833,-1.862 -1.862,-1.862 z"
         id="path71" />
    </g>
  </g>
</svg>
